<svg width="123" height="42" viewBox="0 0 123 42" fill="none" xmlns="http://www.w3.org/2000/svg">
<g filter="url(#filter0_d_9_24)">
<path d="M9.31089 24.5C9.00112 24.5 8.75 24.7511 8.75 25.0609V35C8.75 35.9665 9.53351 36.75 10.5 36.75H24.0625C30.1031 36.75 35 31.8531 35 25.8125C35 23.0316 33.9623 20.4932 32.2529 18.5633C31.9074 18.1734 32.1682 17.5 32.6891 17.5C32.9989 17.5 33.25 17.2489 33.25 16.9391V7C33.25 6.03351 32.4665 5.25 31.5 5.25H17.9375C11.8969 5.25 7 10.1469 7 16.1875C7 18.9684 8.0378 21.5068 9.74722 23.4367C10.0926 23.8266 9.83181 24.5 9.31089 24.5Z" fill="white"/>
</g>
<path d="M17.9375 14C16.7294 14 15.75 14.9794 15.75 16.1875C15.75 17.3956 16.7294 18.375 17.9375 18.375H24.0625C28.1701 18.375 31.5 21.7049 31.5 25.8125C31.5 29.9201 28.1701 33.25 24.0625 33.25H12.25V28H24.0625C25.2707 28 26.25 27.0207 26.25 25.8125C26.25 24.6043 25.2707 23.625 24.0625 23.625H17.9375C13.8299 23.625 10.5 20.2951 10.5 16.1875C10.5 12.0799 13.8299 8.75 17.9375 8.75H29.75V14H17.9375Z" fill="#1452CC"/>
<path d="M43.4773 35.3089C42.4332 35.3089 41.5028 35.1278 40.6861 34.7656C39.8693 34.3963 39.223 33.853 38.7472 33.1357C38.2784 32.4112 38.044 31.5092 38.044 30.4297C38.044 29.5206 38.2109 28.7571 38.5447 28.1392C38.8786 27.5213 39.3331 27.0241 39.9084 26.6477C40.4837 26.2713 41.1371 25.9872 41.8686 25.7955C42.6072 25.6037 43.3814 25.4688 44.1911 25.3906C45.1428 25.2912 45.9098 25.1989 46.4922 25.1136C47.0746 25.0213 47.4972 24.8864 47.7599 24.7088C48.0227 24.5312 48.1541 24.2685 48.1541 23.9205V23.8565C48.1541 23.1818 47.9411 22.6598 47.5149 22.2905C47.0959 21.9212 46.4993 21.7365 45.7251 21.7365C44.9084 21.7365 44.2585 21.9176 43.7756 22.2798C43.2926 22.6349 42.973 23.0824 42.8168 23.6222L38.6193 23.2812C38.8324 22.2869 39.2514 21.4276 39.8764 20.7031C40.5014 19.9716 41.3075 19.4105 42.2947 19.0199C43.2891 18.6222 44.4396 18.4233 45.7464 18.4233C46.6555 18.4233 47.5256 18.5298 48.3565 18.7429C49.1946 18.956 49.9368 19.2862 50.5831 19.7337C51.2365 20.1811 51.7514 20.7564 52.1278 21.4595C52.5043 22.1555 52.6925 22.9901 52.6925 23.9631V35H48.3885V32.7308H48.2607C47.9979 33.2422 47.6463 33.6932 47.206 34.0838C46.7656 34.4673 46.2365 34.7692 45.6186 34.9893C45.0007 35.2024 44.2869 35.3089 43.4773 35.3089ZM44.777 32.1768C45.4446 32.1768 46.0341 32.0455 46.5455 31.7827C47.0568 31.5128 47.4581 31.1506 47.7493 30.696C48.0405 30.2415 48.1861 29.7266 48.1861 29.1513V27.4148C48.044 27.5071 47.8487 27.5923 47.6001 27.6705C47.3587 27.7415 47.0852 27.8089 46.7798 27.8729C46.4744 27.9297 46.169 27.983 45.8636 28.0327C45.5582 28.0753 45.2812 28.1143 45.0327 28.1499C44.5 28.228 44.0348 28.3523 43.6371 28.5227C43.2393 28.6932 42.9304 28.924 42.7102 29.2152C42.4901 29.4993 42.38 29.8544 42.38 30.2805C42.38 30.8984 42.6037 31.3707 43.0511 31.6974C43.5057 32.017 44.081 32.1768 44.777 32.1768ZM60.7518 13.1818V35H56.2134V13.1818H60.7518ZM71.8446 35.3196C70.1614 35.3196 68.7125 34.9787 67.498 34.2969C66.2907 33.608 65.3603 32.6349 64.7069 31.3778C64.0534 30.1136 63.7267 28.6186 63.7267 26.8928C63.7267 25.2095 64.0534 23.7322 64.7069 22.4609C65.3603 21.1896 66.28 20.1989 67.4661 19.4886C68.6593 18.7784 70.0584 18.4233 71.6635 18.4233C72.7431 18.4233 73.748 18.5973 74.6784 18.9453C75.6159 19.2862 76.4327 19.8011 77.1287 20.4901C77.8319 21.179 78.3787 22.0455 78.7694 23.0895C79.16 24.1264 79.3553 25.3409 79.3553 26.733V27.9794H65.5378V25.1669H75.0833C75.0833 24.5135 74.9412 23.9347 74.6571 23.4304C74.373 22.9261 73.9789 22.532 73.4746 22.2479C72.9775 21.9567 72.3986 21.8111 71.7381 21.8111C71.0492 21.8111 70.4384 21.9709 69.9057 22.2905C69.3801 22.603 68.9682 23.0256 68.6699 23.5582C68.3716 24.0838 68.2189 24.6697 68.2118 25.3161V27.9901C68.2118 28.7997 68.361 29.4993 68.6593 30.0888C68.9647 30.6783 69.3944 31.1328 69.9483 31.4524C70.5023 31.772 71.1593 31.9318 71.9192 31.9318C72.4235 31.9318 72.8851 31.8608 73.3042 31.7188C73.7232 31.5767 74.0819 31.3636 74.3801 31.0795C74.6784 30.7955 74.9057 30.4474 75.062 30.0355L79.2594 30.3125C79.0463 31.321 78.6096 32.2017 77.949 32.9545C77.2956 33.7003 76.4505 34.2827 75.4135 34.7017C74.3837 35.1136 73.1941 35.3196 71.8446 35.3196ZM84.9696 35.277C84.2665 35.277 83.6628 35.0284 83.1586 34.5312C82.6614 34.027 82.4128 33.4233 82.4128 32.7202C82.4128 32.0241 82.6614 31.4276 83.1586 30.9304C83.6628 30.4332 84.2665 30.1847 84.9696 30.1847C85.6515 30.1847 86.248 30.4332 86.7594 30.9304C87.2708 31.4276 87.5265 32.0241 87.5265 32.7202C87.5265 33.1889 87.4057 33.6186 87.1642 34.0092C86.9299 34.3928 86.6209 34.7017 86.2374 34.9361C85.8539 35.1634 85.4313 35.277 84.9696 35.277ZM95.3647 30.2912L95.3754 24.8473H96.0359L101.277 18.6364H106.487L99.445 26.8608H98.369L95.3647 30.2912ZM91.2525 35V13.1818H95.7908V35H91.2525ZM101.48 35L96.6644 27.8729L99.69 24.6662L106.796 35H101.48ZM108.628 35V32.294L116.64 22.3757V22.2585H108.905V18.6364H122.105V21.5874L114.583 31.2607V31.3778H122.382V35H108.628Z" fill="white"/>
<defs>
<filter id="filter0_d_9_24" x="5" y="3.75" width="32" height="35.5" filterUnits="userSpaceOnUse" color-interpolation-filters="sRGB">
<feFlood flood-opacity="0" result="BackgroundImageFix"/>
<feColorMatrix in="SourceAlpha" type="matrix" values="0 0 0 0 0 0 0 0 0 0 0 0 0 0 0 0 0 0 127 0" result="hardAlpha"/>
<feOffset dy="0.5"/>
<feGaussianBlur stdDeviation="1"/>
<feComposite in2="hardAlpha" operator="out"/>
<feColorMatrix type="matrix" values="0 0 0 0 0 0 0 0 0 0 0 0 0 0 0 0 0 0 0.25 0"/>
<feBlend mode="normal" in2="BackgroundImageFix" result="effect1_dropShadow_9_24"/>
<feBlend mode="normal" in="SourceGraphic" in2="effect1_dropShadow_9_24" result="shape"/>
</filter>
</defs>
</svg>
